<svg xmlns="http://www.w3.org/2000/svg" viewBox="0 0 445.38 414"><title>Asset 9</title><circle cx="5.09" cy="5.09" r="5.09" fill="#b1404e"/><circle cx="32.32" cy="5.09" r="5.09" fill="#b1404e"/><circle cx="59.55" cy="5.09" r="5.09" fill="#b1404e"/><circle cx="86.78" cy="5.09" r="5.09" fill="#b1404e"/><circle cx="114" cy="5.09" r="5.09" fill="#b1404e"/><circle cx="141.23" cy="5.09" r="5.09" fill="#b1404e"/><circle cx="168.46" cy="5.09" r="5.09" fill="#b1404e"/><circle cx="195.69" cy="5.09" r="5.09" fill="#b1404e"/><circle cx="222.92" cy="5.09" r="5.09" fill="#b1404e"/><circle cx="250.15" cy="5.09" r="5.09" fill="#b1404e"/><circle cx="277.37" cy="5.09" r="5.09" fill="#b1404e"/><circle cx="304.6" cy="5.09" r="5.09" fill="#b1404e"/><circle cx="331.83" cy="5.09" r="5.09" fill="#b1404e"/><circle cx="359.06" cy="5.09" r="5.09" fill="#b1404e"/><circle cx="386.29" cy="5.09" r="5.09" fill="#b1404e"/><circle cx="5.09" cy="24.32" r="5.09" fill="#b1404e"/><circle cx="32.32" cy="24.32" r="5.09" fill="#b1404e"/><circle cx="59.55" cy="24.32" r="5.09" fill="#b1404e"/><circle cx="86.78" cy="24.32" r="5.09" fill="#b1404e"/><circle cx="114" cy="24.32" r="5.09" fill="#b1404e"/><circle cx="141.23" cy="24.32" r="5.09" fill="#b1404e"/><circle cx="168.46" cy="24.32" r="5.09" fill="#b1404e"/><circle cx="195.69" cy="24.32" r="5.09" fill="#b1404e"/><circle cx="222.92" cy="24.32" r="5.09" fill="#b1404e"/><circle cx="250.15" cy="24.32" r="5.09" fill="#b1404e"/><circle cx="277.37" cy="24.32" r="5.09" fill="#b1404e"/><circle cx="304.6" cy="24.32" r="5.09" fill="#b1404e"/><circle cx="331.83" cy="24.32" r="5.09" fill="#b1404e"/><circle cx="359.06" cy="24.32" r="5.09" fill="#b1404e"/><circle cx="386.29" cy="24.32" r="5.09" fill="#b1404e"/><circle cx="5.09" cy="43.55" r="5.09" fill="#b1404e"/><circle cx="32.32" cy="43.55" r="5.09" fill="#b1404e"/><circle cx="59.55" cy="43.55" r="5.09" fill="#b1404e"/><circle cx="86.78" cy="43.55" r="5.09" fill="#b1404e"/><circle cx="114" cy="43.55" r="5.09" fill="#b1404e"/><circle cx="141.23" cy="43.55" r="5.09" fill="#b1404e"/><circle cx="168.46" cy="43.55" r="5.09" fill="#b1404e"/><circle cx="195.69" cy="43.55" r="5.09" fill="#b1404e"/><circle cx="222.92" cy="43.55" r="5.09" fill="#b1404e"/><circle cx="250.15" cy="43.55" r="5.09" fill="#b1404e"/><circle cx="277.37" cy="43.55" r="5.09" fill="#b1404e"/><circle cx="304.6" cy="43.55" r="5.09" fill="#b1404e"/><circle cx="331.83" cy="43.55" r="5.09" fill="#b1404e"/><circle cx="359.06" cy="43.55" r="5.09" fill="#b1404e"/><circle cx="386.29" cy="43.55" r="5.09" fill="#b1404e"/><circle cx="5.09" cy="62.78" r="5.09" fill="#b1404e"/><circle cx="32.32" cy="62.78" r="5.09" fill="#b1404e"/><circle cx="59.55" cy="62.78" r="5.09" fill="#b1404e"/><circle cx="86.78" cy="62.78" r="5.09" fill="#b1404e"/><circle cx="114" cy="62.78" r="5.09" fill="#b1404e"/><circle cx="141.23" cy="62.78" r="5.09" fill="#b1404e"/><circle cx="168.46" cy="62.78" r="5.09" fill="#b1404e"/><circle cx="195.69" cy="62.78" r="5.09" fill="#b1404e"/><circle cx="222.92" cy="62.78" r="5.09" fill="#b1404e"/><circle cx="250.15" cy="62.78" r="5.09" fill="#b1404e"/><circle cx="277.37" cy="62.78" r="5.09" fill="#b1404e"/><circle cx="304.6" cy="62.78" r="5.09" fill="#b1404e"/><circle cx="331.83" cy="62.78" r="5.09" fill="#b1404e"/><circle cx="359.06" cy="62.78" r="5.09" fill="#b1404e"/><circle cx="386.29" cy="62.78" r="5.09" fill="#b1404e"/><circle cx="5.09" cy="82.01" r="5.09" fill="#b1404e"/><circle cx="32.32" cy="82.01" r="5.09" fill="#b1404e"/><circle cx="59.55" cy="82.01" r="5.09" fill="#b1404e"/><circle cx="86.78" cy="82.01" r="5.09" fill="#b1404e"/><circle cx="114" cy="82.01" r="5.09" fill="#b1404e"/><circle cx="141.23" cy="82.01" r="5.09" fill="#b1404e"/><circle cx="168.46" cy="82.01" r="5.09" fill="#b1404e"/><circle cx="195.69" cy="82.01" r="5.09" fill="#b1404e"/><circle cx="222.92" cy="82.01" r="5.09" fill="#b1404e"/><circle cx="250.15" cy="82.01" r="5.09" fill="#b1404e"/><circle cx="277.37" cy="82.01" r="5.09" fill="#b1404e"/><circle cx="304.6" cy="82.01" r="5.09" fill="#b1404e"/><circle cx="331.83" cy="82.01" r="5.09" fill="#b1404e"/><circle cx="359.06" cy="82.01" r="5.09" fill="#b1404e"/><circle cx="386.29" cy="82.01" r="5.09" fill="#b1404e"/><circle cx="5.09" cy="101.24" r="5.09" fill="#b1404e"/><circle cx="32.32" cy="101.24" r="5.09" fill="#b1404e"/><circle cx="59.55" cy="101.24" r="5.09" fill="#b1404e"/><circle cx="86.78" cy="101.24" r="5.09" fill="#b1404e"/><circle cx="114" cy="101.24" r="5.09" fill="#b1404e"/><circle cx="141.23" cy="101.24" r="5.09" fill="#b1404e"/><circle cx="168.46" cy="101.24" r="5.09" fill="#b1404e"/><circle cx="195.69" cy="101.24" r="5.09" fill="#b1404e"/><circle cx="222.92" cy="101.24" r="5.09" fill="#b1404e"/><circle cx="250.15" cy="101.24" r="5.09" fill="#b1404e"/><circle cx="277.37" cy="101.24" r="5.09" fill="#b1404e"/><circle cx="304.6" cy="101.24" r="5.09" fill="#b1404e"/><circle cx="331.83" cy="101.24" r="5.09" fill="#b1404e"/><circle cx="359.06" cy="101.24" r="5.09" fill="#b1404e"/><circle cx="386.29" cy="101.24" r="5.09" fill="#b1404e"/><circle cx="5.09" cy="120.47" r="5.09" fill="#b1404e"/><circle cx="32.32" cy="120.47" r="5.09" fill="#b1404e"/><circle cx="59.55" cy="120.47" r="5.09" fill="#b1404e"/><circle cx="86.78" cy="120.47" r="5.09" fill="#b1404e"/><circle cx="114" cy="120.47" r="5.09" fill="#b1404e"/><circle cx="141.23" cy="120.47" r="5.09" fill="#b1404e"/><circle cx="168.46" cy="120.47" r="5.09" fill="#b1404e"/><circle cx="195.69" cy="120.47" r="5.09" fill="#b1404e"/><circle cx="222.92" cy="120.47" r="5.09" fill="#b1404e"/><circle cx="250.15" cy="120.47" r="5.09" fill="#b1404e"/><circle cx="277.37" cy="120.47" r="5.09" fill="#b1404e"/><circle cx="304.6" cy="120.47" r="5.09" fill="#b1404e"/><circle cx="331.83" cy="120.47" r="5.09" fill="#b1404e"/><circle cx="359.06" cy="120.47" r="5.09" fill="#b1404e"/><circle cx="386.29" cy="120.47" r="5.09" fill="#b1404e"/><circle cx="5.09" cy="139.7" r="5.09" fill="#b1404e"/><circle cx="32.32" cy="139.7" r="5.09" fill="#b1404e"/><circle cx="59.55" cy="139.7" r="5.09" fill="#b1404e"/><circle cx="86.78" cy="139.7" r="5.09" fill="#b1404e"/><circle cx="114" cy="139.7" r="5.09" fill="#b1404e"/><circle cx="141.23" cy="139.7" r="5.09" fill="#b1404e"/><circle cx="168.46" cy="139.7" r="5.09" fill="#b1404e"/><circle cx="195.69" cy="139.7" r="5.09" fill="#b1404e"/><circle cx="222.92" cy="139.7" r="5.09" fill="#b1404e"/><circle cx="250.15" cy="139.7" r="5.09" fill="#b1404e"/><circle cx="277.37" cy="139.7" r="5.09" fill="#b1404e"/><circle cx="304.6" cy="139.7" r="5.09" fill="#b1404e"/><circle cx="331.83" cy="139.7" r="5.09" fill="#b1404e"/><circle cx="359.06" cy="139.7" r="5.09" fill="#b1404e"/><circle cx="386.29" cy="139.7" r="5.09" fill="#b1404e"/><circle cx="5.09" cy="158.93" r="5.09" fill="#b1404e"/><circle cx="32.32" cy="158.93" r="5.09" fill="#b1404e"/><circle cx="59.55" cy="158.93" r="5.09" fill="#b1404e"/><circle cx="86.78" cy="158.93" r="5.09" fill="#b1404e"/><circle cx="114" cy="158.93" r="5.09" fill="#b1404e"/><circle cx="141.23" cy="158.93" r="5.09" fill="#b1404e"/><circle cx="168.46" cy="158.93" r="5.09" fill="#b1404e"/><circle cx="195.69" cy="158.93" r="5.09" fill="#b1404e"/><circle cx="222.92" cy="158.93" r="5.09" fill="#b1404e"/><circle cx="250.15" cy="158.93" r="5.09" fill="#b1404e"/><circle cx="277.37" cy="158.93" r="5.09" fill="#b1404e"/><circle cx="304.6" cy="158.93" r="5.09" fill="#b1404e"/><circle cx="331.83" cy="158.93" r="5.09" fill="#b1404e"/><circle cx="359.06" cy="158.93" r="5.09" fill="#b1404e"/><circle cx="386.29" cy="158.93" r="5.09" fill="#b1404e"/><circle cx="5.09" cy="178.16" r="5.09" fill="#b1404e"/><circle cx="32.32" cy="178.16" r="5.09" fill="#b1404e"/><circle cx="59.55" cy="178.16" r="5.09" fill="#b1404e"/><circle cx="86.78" cy="178.16" r="5.09" fill="#b1404e"/><circle cx="114" cy="178.16" r="5.09" fill="#b1404e"/><circle cx="141.23" cy="178.16" r="5.09" fill="#b1404e"/><circle cx="168.46" cy="178.16" r="5.09" fill="#b1404e"/><circle cx="195.69" cy="178.16" r="5.09" fill="#b1404e"/><circle cx="222.92" cy="178.16" r="5.09" fill="#b1404e"/><circle cx="250.15" cy="178.16" r="5.09" fill="#b1404e"/><circle cx="277.37" cy="178.16" r="5.09" fill="#b1404e"/><circle cx="304.6" cy="178.16" r="5.09" fill="#b1404e"/><circle cx="331.83" cy="178.16" r="5.09" fill="#b1404e"/><circle cx="359.06" cy="178.16" r="5.09" fill="#b1404e"/><circle cx="386.29" cy="178.16" r="5.09" fill="#b1404e"/><circle cx="5.09" cy="197.39" r="5.09" fill="#b1404e"/><circle cx="32.32" cy="197.39" r="5.09" fill="#b1404e"/><circle cx="59.55" cy="197.39" r="5.09" fill="#b1404e"/><circle cx="86.78" cy="197.39" r="5.09" fill="#b1404e"/><circle cx="114" cy="197.39" r="5.09" fill="#b1404e"/><circle cx="141.23" cy="197.39" r="5.09" fill="#b1404e"/><circle cx="168.46" cy="197.39" r="5.09" fill="#b1404e"/><circle cx="195.69" cy="197.39" r="5.09" fill="#b1404e"/><circle cx="222.92" cy="197.39" r="5.09" fill="#b1404e"/><circle cx="250.15" cy="197.39" r="5.09" fill="#b1404e"/><circle cx="277.37" cy="197.39" r="5.09" fill="#b1404e"/><circle cx="304.6" cy="197.39" r="5.09" fill="#b1404e"/><circle cx="331.83" cy="197.39" r="5.09" fill="#b1404e"/><circle cx="359.06" cy="197.39" r="5.09" fill="#b1404e"/><circle cx="386.29" cy="197.39" r="5.09" fill="#b1404e"/><circle cx="5.09" cy="216.61" r="5.09" fill="#b1404e"/><circle cx="32.32" cy="216.61" r="5.09" fill="#b1404e"/><circle cx="59.55" cy="216.61" r="5.09" fill="#b1404e"/><circle cx="86.78" cy="216.61" r="5.09" fill="#b1404e"/><circle cx="114" cy="216.61" r="5.09" fill="#b1404e"/><circle cx="141.23" cy="216.61" r="5.09" fill="#b1404e"/><circle cx="168.46" cy="216.61" r="5.09" fill="#b1404e"/><circle cx="195.69" cy="216.61" r="5.09" fill="#b1404e"/><circle cx="222.92" cy="216.61" r="5.09" fill="#b1404e"/><circle cx="250.15" cy="216.61" r="5.09" fill="#b1404e"/><circle cx="277.37" cy="216.61" r="5.09" fill="#b1404e"/><circle cx="304.6" cy="216.61" r="5.09" fill="#b1404e"/><circle cx="331.83" cy="216.61" r="5.09" fill="#b1404e"/><circle cx="359.06" cy="216.61" r="5.09" fill="#b1404e"/><circle cx="386.29" cy="216.61" r="5.09" fill="#b1404e"/><circle cx="5.09" cy="235.84" r="5.09" fill="#b1404e"/><circle cx="32.32" cy="235.84" r="5.09" fill="#b1404e"/><circle cx="59.55" cy="235.84" r="5.09" fill="#b1404e"/><circle cx="86.78" cy="235.84" r="5.09" fill="#b1404e"/><circle cx="114" cy="235.84" r="5.09" fill="#b1404e"/><circle cx="141.23" cy="235.84" r="5.09" fill="#b1404e"/><circle cx="168.46" cy="235.84" r="5.09" fill="#b1404e"/><circle cx="195.69" cy="235.84" r="5.09" fill="#b1404e"/><circle cx="222.92" cy="235.84" r="5.09" fill="#b1404e"/><circle cx="250.15" cy="235.84" r="5.09" fill="#b1404e"/><circle cx="277.37" cy="235.84" r="5.09" fill="#b1404e"/><circle cx="304.6" cy="235.84" r="5.09" fill="#b1404e"/><circle cx="331.83" cy="235.84" r="5.09" fill="#b1404e"/><circle cx="359.06" cy="235.84" r="5.09" fill="#b1404e"/><circle cx="386.29" cy="235.84" r="5.09" fill="#b1404e"/><circle cx="5.09" cy="255.07" r="5.09" fill="#b1404e"/><circle cx="32.32" cy="255.07" r="5.09" fill="#b1404e"/><circle cx="59.55" cy="255.07" r="5.09" fill="#b1404e"/><circle cx="86.78" cy="255.07" r="5.09" fill="#b1404e"/><circle cx="114" cy="255.07" r="5.09" fill="#b1404e"/><circle cx="141.23" cy="255.07" r="5.09" fill="#b1404e"/><circle cx="168.46" cy="255.07" r="5.09" fill="#b1404e"/><circle cx="195.69" cy="255.07" r="5.09" fill="#b1404e"/><circle cx="222.92" cy="255.07" r="5.09" fill="#b1404e"/><circle cx="250.15" cy="255.07" r="5.09" fill="#b1404e"/><circle cx="277.37" cy="255.07" r="5.09" fill="#b1404e"/><circle cx="304.6" cy="255.07" r="5.09" fill="#b1404e"/><circle cx="331.83" cy="255.07" r="5.09" fill="#b1404e"/><circle cx="359.06" cy="255.07" r="5.09" fill="#b1404e"/><circle cx="386.29" cy="255.07" r="5.09" fill="#b1404e"/><circle cx="5.09" cy="274.3" r="5.09" fill="#b1404e"/><circle cx="32.32" cy="274.3" r="5.09" fill="#b1404e"/><circle cx="59.55" cy="274.3" r="5.09" fill="#b1404e"/><circle cx="86.78" cy="274.3" r="5.09" fill="#b1404e"/><circle cx="114" cy="274.3" r="5.09" fill="#b1404e"/><circle cx="141.23" cy="274.3" r="5.09" fill="#b1404e"/><circle cx="168.46" cy="274.3" r="5.09" fill="#b1404e"/><circle cx="195.69" cy="274.3" r="5.09" fill="#b1404e"/><circle cx="222.92" cy="274.3" r="5.09" fill="#b1404e"/><circle cx="250.15" cy="274.3" r="5.09" fill="#b1404e"/><circle cx="277.37" cy="274.3" r="5.09" fill="#b1404e"/><circle cx="304.6" cy="274.3" r="5.09" fill="#b1404e"/><circle cx="331.83" cy="274.3" r="5.09" fill="#b1404e"/><circle cx="359.06" cy="274.3" r="5.09" fill="#b1404e"/><circle cx="386.29" cy="274.3" r="5.09" fill="#b1404e"/><circle cx="5.09" cy="293.53" r="5.09" fill="#b1404e"/><circle cx="32.32" cy="293.53" r="5.09" fill="#b1404e"/><circle cx="59.55" cy="293.53" r="5.09" fill="#b1404e"/><circle cx="86.78" cy="293.53" r="5.09" fill="#b1404e"/><circle cx="114" cy="293.53" r="5.09" fill="#b1404e"/><circle cx="141.23" cy="293.53" r="5.09" fill="#b1404e"/><circle cx="168.46" cy="293.53" r="5.09" fill="#b1404e"/><circle cx="195.69" cy="293.53" r="5.09" fill="#b1404e"/><circle cx="222.92" cy="293.53" r="5.09" fill="#b1404e"/><circle cx="250.15" cy="293.53" r="5.09" fill="#b1404e"/><circle cx="277.37" cy="293.53" r="5.09" fill="#b1404e"/><circle cx="304.6" cy="293.53" r="5.09" fill="#b1404e"/><circle cx="331.83" cy="293.53" r="5.09" fill="#b1404e"/><circle cx="359.06" cy="293.53" r="5.09" fill="#b1404e"/><circle cx="386.29" cy="293.53" r="5.09" fill="#b1404e"/><circle cx="5.09" cy="312.76" r="5.09" fill="#b1404e"/><circle cx="32.32" cy="312.76" r="5.09" fill="#b1404e"/><circle cx="59.55" cy="312.76" r="5.09" fill="#b1404e"/><circle cx="86.78" cy="312.76" r="5.09" fill="#b1404e"/><circle cx="114" cy="312.76" r="5.09" fill="#b1404e"/><circle cx="141.23" cy="312.76" r="5.09" fill="#b1404e"/><circle cx="168.46" cy="312.76" r="5.09" fill="#b1404e"/><circle cx="195.69" cy="312.76" r="5.09" fill="#b1404e"/><circle cx="222.92" cy="312.76" r="5.09" fill="#b1404e"/><circle cx="250.15" cy="312.76" r="5.09" fill="#b1404e"/><circle cx="277.37" cy="312.76" r="5.09" fill="#b1404e"/><circle cx="304.6" cy="312.76" r="5.09" fill="#b1404e"/><circle cx="331.83" cy="312.76" r="5.09" fill="#b1404e"/><circle cx="359.06" cy="312.76" r="5.09" fill="#b1404e"/><circle cx="386.29" cy="312.76" r="5.09" fill="#b1404e"/><circle cx="5.09" cy="331.99" r="5.09" fill="#b1404e"/><circle cx="32.32" cy="331.99" r="5.09" fill="#b1404e"/><circle cx="59.55" cy="331.99" r="5.09" fill="#b1404e"/><circle cx="86.78" cy="331.99" r="5.09" fill="#b1404e"/><circle cx="114" cy="331.99" r="5.09" fill="#b1404e"/><circle cx="141.23" cy="331.99" r="5.09" fill="#b1404e"/><circle cx="168.46" cy="331.99" r="5.09" fill="#b1404e"/><circle cx="195.69" cy="331.99" r="5.09" fill="#b1404e"/><circle cx="222.92" cy="331.99" r="5.09" fill="#b1404e"/><circle cx="250.15" cy="331.99" r="5.09" fill="#b1404e"/><circle cx="277.37" cy="331.99" r="5.09" fill="#b1404e"/><circle cx="304.6" cy="331.99" r="5.09" fill="#b1404e"/><circle cx="331.83" cy="331.99" r="5.09" fill="#b1404e"/><circle cx="359.06" cy="331.99" r="5.09" fill="#b1404e"/><circle cx="386.29" cy="331.99" r="5.09" fill="#b1404e"/><circle cx="5.09" cy="351.22" r="5.09" fill="#b1404e"/><circle cx="32.32" cy="351.22" r="5.09" fill="#b1404e"/><circle cx="59.55" cy="351.22" r="5.09" fill="#b1404e"/><circle cx="86.78" cy="351.22" r="5.09" fill="#b1404e"/><circle cx="114" cy="351.22" r="5.09" fill="#b1404e"/><circle cx="141.23" cy="351.22" r="5.09" fill="#b1404e"/><circle cx="168.46" cy="351.22" r="5.09" fill="#b1404e"/><circle cx="195.69" cy="351.22" r="5.09" fill="#b1404e"/><circle cx="222.92" cy="351.22" r="5.09" fill="#b1404e"/><circle cx="250.15" cy="351.22" r="5.09" fill="#b1404e"/><circle cx="277.37" cy="351.22" r="5.09" fill="#b1404e"/><circle cx="304.6" cy="351.22" r="5.09" fill="#b1404e"/><circle cx="331.83" cy="351.22" r="5.09" fill="#b1404e"/><circle cx="359.06" cy="351.22" r="5.09" fill="#b1404e"/><circle cx="386.29" cy="351.22" r="5.09" fill="#b1404e"/><circle cx="5.09" cy="370.45" r="5.09" fill="#b1404e"/><circle cx="32.32" cy="370.45" r="5.09" fill="#b1404e"/><circle cx="59.55" cy="370.45" r="5.09" fill="#b1404e"/><circle cx="86.78" cy="370.45" r="5.09" fill="#b1404e"/><circle cx="114" cy="370.45" r="5.09" fill="#b1404e"/><circle cx="141.23" cy="370.45" r="5.09" fill="#b1404e"/><circle cx="168.46" cy="370.45" r="5.09" fill="#b1404e"/><circle cx="195.69" cy="370.45" r="5.09" fill="#b1404e"/><circle cx="222.92" cy="370.45" r="5.09" fill="#b1404e"/><circle cx="250.15" cy="370.45" r="5.09" fill="#b1404e"/><circle cx="277.37" cy="370.45" r="5.09" fill="#b1404e"/><circle cx="304.6" cy="370.45" r="5.09" fill="#b1404e"/><circle cx="331.83" cy="370.45" r="5.09" fill="#b1404e"/><circle cx="359.06" cy="370.45" r="5.09" fill="#b1404e"/><circle cx="386.29" cy="370.45" r="5.09" fill="#b1404e"/><circle cx="5.09" cy="389.68" r="5.09" fill="#b1404e"/><circle cx="32.32" cy="389.68" r="5.09" fill="#b1404e"/><circle cx="59.55" cy="389.68" r="5.09" fill="#b1404e"/><circle cx="86.78" cy="389.68" r="5.09" fill="#b1404e"/><circle cx="114" cy="389.68" r="5.09" fill="#b1404e"/><circle cx="141.23" cy="389.68" r="5.09" fill="#b1404e"/><circle cx="168.46" cy="389.68" r="5.09" fill="#b1404e"/><circle cx="195.69" cy="389.68" r="5.09" fill="#b1404e"/><circle cx="222.92" cy="389.68" r="5.09" fill="#b1404e"/><circle cx="250.15" cy="389.68" r="5.09" fill="#b1404e"/><circle cx="277.37" cy="389.68" r="5.09" fill="#b1404e"/><circle cx="304.6" cy="389.68" r="5.09" fill="#b1404e"/><circle cx="331.83" cy="389.68" r="5.09" fill="#b1404e"/><circle cx="359.06" cy="389.68" r="5.09" fill="#b1404e"/><circle cx="386.29" cy="389.68" r="5.09" fill="#b1404e"/><circle cx="5.09" cy="408.91" r="5.09" fill="#b1404e"/><circle cx="32.32" cy="408.91" r="5.09" fill="#b1404e"/><circle cx="59.55" cy="408.91" r="5.09" fill="#b1404e"/><circle cx="86.78" cy="408.91" r="5.09" fill="#b1404e"/><circle cx="114" cy="408.91" r="5.09" fill="#b1404e"/><circle cx="141.23" cy="408.91" r="5.09" fill="#b1404e"/><circle cx="168.46" cy="408.91" r="5.09" fill="#b1404e"/><circle cx="195.69" cy="408.91" r="5.09" fill="#b1404e"/><circle cx="222.92" cy="408.91" r="5.09" fill="#b1404e"/><circle cx="250.15" cy="408.91" r="5.09" fill="#b1404e"/><circle cx="277.37" cy="408.91" r="5.09" fill="#b1404e"/><circle cx="304.6" cy="408.91" r="5.09" fill="#b1404e"/><circle cx="331.83" cy="408.91" r="5.09" fill="#b1404e"/><circle cx="359.06" cy="408.91" r="5.09" fill="#b1404e"/><circle cx="386.29" cy="408.91" r="5.09" fill="#b1404e"/><circle cx="59.09" cy="5.09" r="5.09" fill="#b1404e"/><circle cx="86.32" cy="5.09" r="5.09" fill="#b1404e"/><circle cx="113.55" cy="5.09" r="5.09" fill="#b1404e"/><circle cx="140.78" cy="5.09" r="5.09" fill="#b1404e"/><circle cx="168" cy="5.09" r="5.09" fill="#b1404e"/><circle cx="195.23" cy="5.09" r="5.09" fill="#b1404e"/><circle cx="222.46" cy="5.09" r="5.09" fill="#b1404e"/><circle cx="249.69" cy="5.09" r="5.09" fill="#b1404e"/><circle cx="276.92" cy="5.09" r="5.09" fill="#b1404e"/><circle cx="304.15" cy="5.09" r="5.09" fill="#b1404e"/><circle cx="331.37" cy="5.09" r="5.09" fill="#b1404e"/><circle cx="358.6" cy="5.09" r="5.09" fill="#b1404e"/><circle cx="385.83" cy="5.09" r="5.09" fill="#b1404e"/><circle cx="413.06" cy="5.09" r="5.09" fill="#b1404e"/><circle cx="440.29" cy="5.09" r="5.09" fill="#b1404e"/><circle cx="59.09" cy="24.32" r="5.09" fill="#b1404e"/><circle cx="86.32" cy="24.32" r="5.09" fill="#b1404e"/><circle cx="113.55" cy="24.32" r="5.09" fill="#b1404e"/><circle cx="140.78" cy="24.32" r="5.09" fill="#b1404e"/><circle cx="168" cy="24.32" r="5.09" fill="#b1404e"/><circle cx="195.23" cy="24.32" r="5.09" fill="#b1404e"/><circle cx="222.46" cy="24.32" r="5.09" fill="#b1404e"/><circle cx="249.69" cy="24.32" r="5.09" fill="#b1404e"/><circle cx="276.92" cy="24.32" r="5.09" fill="#b1404e"/><circle cx="304.15" cy="24.32" r="5.09" fill="#b1404e"/><circle cx="331.37" cy="24.32" r="5.09" fill="#b1404e"/><circle cx="358.6" cy="24.32" r="5.09" fill="#b1404e"/><circle cx="385.83" cy="24.32" r="5.09" fill="#b1404e"/><circle cx="413.06" cy="24.32" r="5.09" fill="#b1404e"/><circle cx="440.29" cy="24.32" r="5.09" fill="#b1404e"/><circle cx="59.09" cy="43.55" r="5.09" fill="#b1404e"/><circle cx="86.32" cy="43.55" r="5.09" fill="#b1404e"/><circle cx="113.55" cy="43.55" r="5.09" fill="#b1404e"/><circle cx="140.78" cy="43.55" r="5.09" fill="#b1404e"/><circle cx="168" cy="43.55" r="5.09" fill="#b1404e"/><circle cx="195.23" cy="43.55" r="5.09" fill="#b1404e"/><circle cx="222.46" cy="43.55" r="5.09" fill="#b1404e"/><circle cx="249.69" cy="43.55" r="5.09" fill="#b1404e"/><circle cx="276.92" cy="43.55" r="5.09" fill="#b1404e"/><circle cx="304.15" cy="43.55" r="5.09" fill="#b1404e"/><circle cx="331.37" cy="43.55" r="5.09" fill="#b1404e"/><circle cx="358.6" cy="43.55" r="5.09" fill="#b1404e"/><circle cx="385.83" cy="43.55" r="5.09" fill="#b1404e"/><circle cx="413.06" cy="43.55" r="5.09" fill="#b1404e"/><circle cx="440.29" cy="43.55" r="5.09" fill="#b1404e"/><circle cx="59.09" cy="62.78" r="5.09" fill="#b1404e"/><circle cx="86.32" cy="62.78" r="5.09" fill="#b1404e"/><circle cx="113.55" cy="62.78" r="5.09" fill="#b1404e"/><circle cx="140.78" cy="62.78" r="5.09" fill="#b1404e"/><circle cx="168" cy="62.78" r="5.09" fill="#b1404e"/><circle cx="195.23" cy="62.78" r="5.09" fill="#b1404e"/><circle cx="222.46" cy="62.78" r="5.09" fill="#b1404e"/><circle cx="249.69" cy="62.78" r="5.09" fill="#b1404e"/><circle cx="276.92" cy="62.78" r="5.09" fill="#b1404e"/><circle cx="304.15" cy="62.78" r="5.09" fill="#b1404e"/><circle cx="331.37" cy="62.78" r="5.09" fill="#b1404e"/><circle cx="358.6" cy="62.78" r="5.09" fill="#b1404e"/><circle cx="385.83" cy="62.78" r="5.09" fill="#b1404e"/><circle cx="413.06" cy="62.78" r="5.09" fill="#b1404e"/><circle cx="440.29" cy="62.78" r="5.09" fill="#b1404e"/><circle cx="59.09" cy="82.01" r="5.09" fill="#b1404e"/><circle cx="86.32" cy="82.01" r="5.09" fill="#b1404e"/><circle cx="113.55" cy="82.01" r="5.09" fill="#b1404e"/><circle cx="140.78" cy="82.01" r="5.09" fill="#b1404e"/><circle cx="168" cy="82.01" r="5.09" fill="#b1404e"/><circle cx="195.23" cy="82.01" r="5.09" fill="#b1404e"/><circle cx="222.46" cy="82.01" r="5.09" fill="#b1404e"/><circle cx="249.69" cy="82.01" r="5.09" fill="#b1404e"/><circle cx="276.92" cy="82.01" r="5.09" fill="#b1404e"/><circle cx="304.15" cy="82.01" r="5.09" fill="#b1404e"/><circle cx="331.37" cy="82.01" r="5.09" fill="#b1404e"/><circle cx="358.6" cy="82.01" r="5.09" fill="#b1404e"/><circle cx="385.83" cy="82.01" r="5.09" fill="#b1404e"/><circle cx="413.06" cy="82.01" r="5.09" fill="#b1404e"/><circle cx="440.29" cy="82.01" r="5.09" fill="#b1404e"/><circle cx="59.09" cy="101.24" r="5.09" fill="#b1404e"/><circle cx="86.32" cy="101.24" r="5.09" fill="#b1404e"/><circle cx="113.55" cy="101.24" r="5.09" fill="#b1404e"/><circle cx="140.78" cy="101.24" r="5.09" fill="#b1404e"/><circle cx="168" cy="101.24" r="5.09" fill="#b1404e"/><circle cx="195.23" cy="101.24" r="5.09" fill="#b1404e"/><circle cx="222.46" cy="101.24" r="5.09" fill="#b1404e"/><circle cx="249.69" cy="101.24" r="5.09" fill="#b1404e"/><circle cx="276.92" cy="101.24" r="5.09" fill="#b1404e"/><circle cx="304.15" cy="101.24" r="5.09" fill="#b1404e"/><circle cx="331.37" cy="101.24" r="5.09" fill="#b1404e"/><circle cx="358.6" cy="101.24" r="5.09" fill="#b1404e"/><circle cx="385.83" cy="101.24" r="5.09" fill="#b1404e"/><circle cx="413.06" cy="101.24" r="5.09" fill="#b1404e"/><circle cx="440.29" cy="101.24" r="5.09" fill="#b1404e"/><circle cx="59.09" cy="120.47" r="5.09" fill="#b1404e"/><circle cx="86.32" cy="120.47" r="5.09" fill="#b1404e"/><circle cx="113.55" cy="120.47" r="5.09" fill="#b1404e"/><circle cx="140.78" cy="120.47" r="5.09" fill="#b1404e"/><circle cx="168" cy="120.47" r="5.09" fill="#b1404e"/><circle cx="195.23" cy="120.47" r="5.09" fill="#b1404e"/><circle cx="222.46" cy="120.47" r="5.09" fill="#b1404e"/><circle cx="249.69" cy="120.47" r="5.09" fill="#b1404e"/><circle cx="276.92" cy="120.47" r="5.09" fill="#b1404e"/><circle cx="304.15" cy="120.47" r="5.09" fill="#b1404e"/><circle cx="331.37" cy="120.47" r="5.09" fill="#b1404e"/><circle cx="358.6" cy="120.47" r="5.09" fill="#b1404e"/><circle cx="385.83" cy="120.47" r="5.09" fill="#b1404e"/><circle cx="413.06" cy="120.47" r="5.09" fill="#b1404e"/><circle cx="440.29" cy="120.47" r="5.09" fill="#b1404e"/><circle cx="59.09" cy="139.7" r="5.09" fill="#b1404e"/><circle cx="86.32" cy="139.7" r="5.09" fill="#b1404e"/><circle cx="113.55" cy="139.7" r="5.09" fill="#b1404e"/><circle cx="140.78" cy="139.7" r="5.09" fill="#b1404e"/><circle cx="168" cy="139.7" r="5.09" fill="#b1404e"/><circle cx="195.23" cy="139.7" r="5.09" fill="#b1404e"/><circle cx="222.46" cy="139.7" r="5.09" fill="#b1404e"/><circle cx="249.69" cy="139.7" r="5.09" fill="#b1404e"/><circle cx="276.92" cy="139.7" r="5.09" fill="#b1404e"/><circle cx="304.15" cy="139.7" r="5.09" fill="#b1404e"/><circle cx="331.37" cy="139.7" r="5.09" fill="#b1404e"/><circle cx="358.6" cy="139.7" r="5.09" fill="#b1404e"/><circle cx="385.83" cy="139.7" r="5.09" fill="#b1404e"/><circle cx="413.06" cy="139.7" r="5.09" fill="#b1404e"/><circle cx="440.29" cy="139.7" r="5.09" fill="#b1404e"/><circle cx="59.09" cy="158.93" r="5.09" fill="#b1404e"/><circle cx="86.32" cy="158.93" r="5.09" fill="#b1404e"/><circle cx="113.55" cy="158.93" r="5.09" fill="#b1404e"/><circle cx="140.78" cy="158.93" r="5.09" fill="#b1404e"/><circle cx="168" cy="158.93" r="5.09" fill="#b1404e"/><circle cx="195.23" cy="158.93" r="5.09" fill="#b1404e"/><circle cx="222.46" cy="158.93" r="5.09" fill="#b1404e"/><circle cx="249.69" cy="158.93" r="5.09" fill="#b1404e"/><circle cx="276.92" cy="158.93" r="5.09" fill="#b1404e"/><circle cx="304.15" cy="158.93" r="5.09" fill="#b1404e"/><circle cx="331.37" cy="158.93" r="5.09" fill="#b1404e"/><circle cx="358.6" cy="158.93" r="5.09" fill="#b1404e"/><circle cx="385.83" cy="158.93" r="5.09" fill="#b1404e"/><circle cx="413.06" cy="158.93" r="5.09" fill="#b1404e"/><circle cx="440.29" cy="158.93" r="5.09" fill="#b1404e"/><circle cx="59.09" cy="178.16" r="5.09" fill="#b1404e"/><circle cx="86.32" cy="178.16" r="5.09" fill="#b1404e"/><circle cx="113.55" cy="178.16" r="5.09" fill="#b1404e"/><circle cx="140.78" cy="178.16" r="5.09" fill="#b1404e"/><circle cx="168" cy="178.16" r="5.09" fill="#b1404e"/><circle cx="195.23" cy="178.16" r="5.09" fill="#b1404e"/><circle cx="222.46" cy="178.16" r="5.09" fill="#b1404e"/><circle cx="249.69" cy="178.16" r="5.09" fill="#b1404e"/><circle cx="276.92" cy="178.16" r="5.09" fill="#b1404e"/><circle cx="304.15" cy="178.16" r="5.09" fill="#b1404e"/><circle cx="331.37" cy="178.16" r="5.09" fill="#b1404e"/><circle cx="358.6" cy="178.16" r="5.09" fill="#b1404e"/><circle cx="385.83" cy="178.16" r="5.09" fill="#b1404e"/><circle cx="413.06" cy="178.16" r="5.09" fill="#b1404e"/><circle cx="440.29" cy="178.16" r="5.09" fill="#b1404e"/><circle cx="59.09" cy="197.39" r="5.09" fill="#b1404e"/><circle cx="86.32" cy="197.39" r="5.09" fill="#b1404e"/><circle cx="113.55" cy="197.39" r="5.09" fill="#b1404e"/><circle cx="140.78" cy="197.39" r="5.09" fill="#b1404e"/><circle cx="168" cy="197.39" r="5.09" fill="#b1404e"/><circle cx="195.23" cy="197.39" r="5.09" fill="#b1404e"/><circle cx="222.46" cy="197.39" r="5.09" fill="#b1404e"/><circle cx="249.69" cy="197.39" r="5.09" fill="#b1404e"/><circle cx="276.92" cy="197.39" r="5.09" fill="#b1404e"/><circle cx="304.15" cy="197.39" r="5.09" fill="#b1404e"/><circle cx="331.37" cy="197.39" r="5.09" fill="#b1404e"/><circle cx="358.6" cy="197.39" r="5.09" fill="#b1404e"/><circle cx="385.83" cy="197.39" r="5.09" fill="#b1404e"/><circle cx="413.06" cy="197.39" r="5.09" fill="#b1404e"/><circle cx="440.29" cy="197.39" r="5.09" fill="#b1404e"/><circle cx="59.09" cy="216.61" r="5.09" fill="#b1404e"/><circle cx="86.32" cy="216.61" r="5.09" fill="#b1404e"/><circle cx="113.55" cy="216.61" r="5.09" fill="#b1404e"/><circle cx="140.78" cy="216.61" r="5.09" fill="#b1404e"/><circle cx="168" cy="216.61" r="5.09" fill="#b1404e"/><circle cx="195.23" cy="216.61" r="5.09" fill="#b1404e"/><circle cx="222.46" cy="216.61" r="5.09" fill="#b1404e"/><circle cx="249.69" cy="216.61" r="5.09" fill="#b1404e"/><circle cx="276.92" cy="216.61" r="5.09" fill="#b1404e"/><circle cx="304.15" cy="216.61" r="5.09" fill="#b1404e"/><circle cx="331.37" cy="216.61" r="5.09" fill="#b1404e"/><circle cx="358.6" cy="216.61" r="5.09" fill="#b1404e"/><circle cx="385.83" cy="216.61" r="5.09" fill="#b1404e"/><circle cx="413.06" cy="216.61" r="5.09" fill="#b1404e"/><circle cx="440.29" cy="216.61" r="5.09" fill="#b1404e"/><circle cx="59.09" cy="235.84" r="5.09" fill="#b1404e"/><circle cx="86.32" cy="235.84" r="5.09" fill="#b1404e"/><circle cx="113.55" cy="235.84" r="5.09" fill="#b1404e"/><circle cx="140.78" cy="235.84" r="5.09" fill="#b1404e"/><circle cx="168" cy="235.84" r="5.09" fill="#b1404e"/><circle cx="195.23" cy="235.84" r="5.09" fill="#b1404e"/><circle cx="222.46" cy="235.84" r="5.09" fill="#b1404e"/><circle cx="249.69" cy="235.84" r="5.09" fill="#b1404e"/><circle cx="276.92" cy="235.84" r="5.09" fill="#b1404e"/><circle cx="304.15" cy="235.84" r="5.09" fill="#b1404e"/><circle cx="331.37" cy="235.84" r="5.09" fill="#b1404e"/><circle cx="358.6" cy="235.84" r="5.09" fill="#b1404e"/><circle cx="385.83" cy="235.84" r="5.09" fill="#b1404e"/><circle cx="413.06" cy="235.84" r="5.09" fill="#b1404e"/><circle cx="440.29" cy="235.84" r="5.09" fill="#b1404e"/><circle cx="59.09" cy="255.07" r="5.09" fill="#b1404e"/><circle cx="86.32" cy="255.07" r="5.09" fill="#b1404e"/><circle cx="113.55" cy="255.07" r="5.09" fill="#b1404e"/><circle cx="140.78" cy="255.07" r="5.09" fill="#b1404e"/><circle cx="168" cy="255.07" r="5.09" fill="#b1404e"/><circle cx="195.23" cy="255.07" r="5.09" fill="#b1404e"/><circle cx="222.46" cy="255.07" r="5.09" fill="#b1404e"/><circle cx="249.69" cy="255.07" r="5.09" fill="#b1404e"/><circle cx="276.92" cy="255.07" r="5.09" fill="#b1404e"/><circle cx="304.15" cy="255.07" r="5.09" fill="#b1404e"/><circle cx="331.37" cy="255.07" r="5.09" fill="#b1404e"/><circle cx="358.6" cy="255.07" r="5.09" fill="#b1404e"/><circle cx="385.83" cy="255.07" r="5.09" fill="#b1404e"/><circle cx="413.06" cy="255.07" r="5.09" fill="#b1404e"/><circle cx="440.29" cy="255.07" r="5.09" fill="#b1404e"/><circle cx="59.09" cy="274.3" r="5.09" fill="#b1404e"/><circle cx="86.32" cy="274.3" r="5.09" fill="#b1404e"/><circle cx="113.55" cy="274.3" r="5.09" fill="#b1404e"/><circle cx="140.78" cy="274.3" r="5.09" fill="#b1404e"/><circle cx="168" cy="274.3" r="5.09" fill="#b1404e"/><circle cx="195.23" cy="274.3" r="5.09" fill="#b1404e"/><circle cx="222.46" cy="274.3" r="5.09" fill="#b1404e"/><circle cx="249.69" cy="274.3" r="5.09" fill="#b1404e"/><circle cx="276.92" cy="274.3" r="5.09" fill="#b1404e"/><circle cx="304.15" cy="274.3" r="5.09" fill="#b1404e"/><circle cx="331.37" cy="274.3" r="5.09" fill="#b1404e"/><circle cx="358.6" cy="274.3" r="5.09" fill="#b1404e"/><circle cx="385.83" cy="274.3" r="5.09" fill="#b1404e"/><circle cx="413.06" cy="274.3" r="5.09" fill="#b1404e"/><circle cx="440.29" cy="274.3" r="5.09" fill="#b1404e"/><circle cx="59.09" cy="293.53" r="5.09" fill="#b1404e"/><circle cx="86.32" cy="293.53" r="5.09" fill="#b1404e"/><circle cx="113.55" cy="293.53" r="5.09" fill="#b1404e"/><circle cx="140.78" cy="293.53" r="5.09" fill="#b1404e"/><circle cx="168" cy="293.53" r="5.09" fill="#b1404e"/><circle cx="195.23" cy="293.53" r="5.09" fill="#b1404e"/><circle cx="222.46" cy="293.53" r="5.09" fill="#b1404e"/><circle cx="249.69" cy="293.53" r="5.09" fill="#b1404e"/><circle cx="276.92" cy="293.53" r="5.09" fill="#b1404e"/><circle cx="304.15" cy="293.53" r="5.09" fill="#b1404e"/><circle cx="331.37" cy="293.53" r="5.09" fill="#b1404e"/><circle cx="358.6" cy="293.53" r="5.09" fill="#b1404e"/><circle cx="385.83" cy="293.53" r="5.09" fill="#b1404e"/><circle cx="413.06" cy="293.53" r="5.09" fill="#b1404e"/><circle cx="440.29" cy="293.53" r="5.09" fill="#b1404e"/><circle cx="59.09" cy="312.76" r="5.09" fill="#b1404e"/><circle cx="86.32" cy="312.76" r="5.09" fill="#b1404e"/><circle cx="113.55" cy="312.76" r="5.09" fill="#b1404e"/><circle cx="140.78" cy="312.76" r="5.09" fill="#b1404e"/><circle cx="168" cy="312.76" r="5.09" fill="#b1404e"/><circle cx="195.23" cy="312.76" r="5.09" fill="#b1404e"/><circle cx="222.46" cy="312.76" r="5.09" fill="#b1404e"/><circle cx="249.69" cy="312.76" r="5.09" fill="#b1404e"/><circle cx="276.92" cy="312.76" r="5.09" fill="#b1404e"/><circle cx="304.15" cy="312.76" r="5.09" fill="#b1404e"/><circle cx="331.37" cy="312.76" r="5.09" fill="#b1404e"/><circle cx="358.6" cy="312.76" r="5.09" fill="#b1404e"/><circle cx="385.83" cy="312.76" r="5.09" fill="#b1404e"/><circle cx="413.06" cy="312.76" r="5.09" fill="#b1404e"/><circle cx="440.29" cy="312.76" r="5.09" fill="#b1404e"/><circle cx="59.09" cy="331.99" r="5.09" fill="#b1404e"/><circle cx="86.32" cy="331.99" r="5.09" fill="#b1404e"/><circle cx="113.55" cy="331.99" r="5.09" fill="#b1404e"/><circle cx="140.78" cy="331.99" r="5.09" fill="#b1404e"/><circle cx="168" cy="331.99" r="5.09" fill="#b1404e"/><circle cx="195.23" cy="331.99" r="5.09" fill="#b1404e"/><circle cx="222.46" cy="331.99" r="5.09" fill="#b1404e"/><circle cx="249.69" cy="331.99" r="5.09" fill="#b1404e"/><circle cx="276.92" cy="331.99" r="5.09" fill="#b1404e"/><circle cx="304.15" cy="331.99" r="5.09" fill="#b1404e"/><circle cx="331.37" cy="331.99" r="5.09" fill="#b1404e"/><circle cx="358.6" cy="331.99" r="5.09" fill="#b1404e"/><circle cx="385.83" cy="331.99" r="5.09" fill="#b1404e"/><circle cx="413.06" cy="331.99" r="5.09" fill="#b1404e"/><circle cx="440.29" cy="331.99" r="5.09" fill="#b1404e"/><circle cx="59.09" cy="351.22" r="5.09" fill="#b1404e"/><circle cx="86.32" cy="351.22" r="5.09" fill="#b1404e"/><circle cx="113.55" cy="351.22" r="5.09" fill="#b1404e"/><circle cx="140.78" cy="351.22" r="5.09" fill="#b1404e"/><circle cx="168" cy="351.22" r="5.09" fill="#b1404e"/><circle cx="195.23" cy="351.22" r="5.09" fill="#b1404e"/><circle cx="222.46" cy="351.22" r="5.09" fill="#b1404e"/><circle cx="249.69" cy="351.22" r="5.09" fill="#b1404e"/><circle cx="276.92" cy="351.22" r="5.09" fill="#b1404e"/><circle cx="304.15" cy="351.22" r="5.09" fill="#b1404e"/><circle cx="331.37" cy="351.22" r="5.09" fill="#b1404e"/><circle cx="358.6" cy="351.22" r="5.09" fill="#b1404e"/><circle cx="385.83" cy="351.22" r="5.09" fill="#b1404e"/><circle cx="413.06" cy="351.22" r="5.09" fill="#b1404e"/><circle cx="440.29" cy="351.22" r="5.09" fill="#b1404e"/><circle cx="59.09" cy="370.45" r="5.09" fill="#b1404e"/><circle cx="86.32" cy="370.45" r="5.09" fill="#b1404e"/><circle cx="113.55" cy="370.45" r="5.09" fill="#b1404e"/><circle cx="140.78" cy="370.45" r="5.09" fill="#b1404e"/><circle cx="168" cy="370.45" r="5.09" fill="#b1404e"/><circle cx="195.23" cy="370.45" r="5.09" fill="#b1404e"/><circle cx="222.46" cy="370.45" r="5.09" fill="#b1404e"/><circle cx="249.69" cy="370.45" r="5.09" fill="#b1404e"/><circle cx="276.92" cy="370.45" r="5.09" fill="#b1404e"/><circle cx="304.15" cy="370.45" r="5.09" fill="#b1404e"/><circle cx="331.37" cy="370.45" r="5.09" fill="#b1404e"/><circle cx="358.6" cy="370.45" r="5.09" fill="#b1404e"/><circle cx="385.83" cy="370.45" r="5.09" fill="#b1404e"/><circle cx="413.06" cy="370.45" r="5.09" fill="#b1404e"/><circle cx="440.29" cy="370.45" r="5.09" fill="#b1404e"/><circle cx="59.09" cy="389.68" r="5.09" fill="#b1404e"/><circle cx="86.32" cy="389.68" r="5.09" fill="#b1404e"/><circle cx="113.55" cy="389.68" r="5.09" fill="#b1404e"/><circle cx="140.78" cy="389.68" r="5.09" fill="#b1404e"/><circle cx="168" cy="389.68" r="5.09" fill="#b1404e"/><circle cx="195.23" cy="389.68" r="5.09" fill="#b1404e"/><circle cx="222.46" cy="389.68" r="5.09" fill="#b1404e"/><circle cx="249.69" cy="389.68" r="5.09" fill="#b1404e"/><circle cx="276.92" cy="389.68" r="5.09" fill="#b1404e"/><circle cx="304.15" cy="389.68" r="5.09" fill="#b1404e"/><circle cx="331.37" cy="389.68" r="5.09" fill="#b1404e"/><circle cx="358.6" cy="389.68" r="5.09" fill="#b1404e"/><circle cx="385.83" cy="389.68" r="5.09" fill="#b1404e"/><circle cx="413.06" cy="389.68" r="5.09" fill="#b1404e"/><circle cx="440.29" cy="389.68" r="5.09" fill="#b1404e"/><circle cx="59.09" cy="408.91" r="5.09" fill="#b1404e"/><circle cx="86.32" cy="408.91" r="5.09" fill="#b1404e"/><circle cx="113.55" cy="408.91" r="5.09" fill="#b1404e"/><circle cx="140.78" cy="408.91" r="5.09" fill="#b1404e"/><circle cx="168" cy="408.91" r="5.09" fill="#b1404e"/><circle cx="195.23" cy="408.91" r="5.09" fill="#b1404e"/><circle cx="222.46" cy="408.91" r="5.09" fill="#b1404e"/><circle cx="249.69" cy="408.91" r="5.09" fill="#b1404e"/><circle cx="276.92" cy="408.91" r="5.09" fill="#b1404e"/><circle cx="304.15" cy="408.91" r="5.09" fill="#b1404e"/><circle cx="331.37" cy="408.91" r="5.09" fill="#b1404e"/><circle cx="358.6" cy="408.91" r="5.09" fill="#b1404e"/><circle cx="385.83" cy="408.91" r="5.09" fill="#b1404e"/><circle cx="413.06" cy="408.91" r="5.09" fill="#b1404e"/><circle cx="440.29" cy="408.91" r="5.09" fill="#b1404e"/></svg>