<svg xmlns="http://www.w3.org/2000/svg" viewBox="0 0 1920 493"><title>Drip</title><path d="M.5,19V94H0V268H.07c0,.62-.07,1.25-.07,1.89v.05H0v154.5H0v.06a28.51,28.51,0,0,0,57,0v-.06h0V269.94h0v-.05c0-.64,0-1.27-.07-1.89H57V208.22h0v0a11.55,11.55,0,0,1,23.09,0v0h0V268h0v90.6h0v0a23.11,23.11,0,0,0,46.21,0v0h0V341.39c0-.61-.07-1.23-.07-1.85v-.05h0V192h0v0a27.21,27.21,0,0,1,54.41,0v0h0v90.33a4.48,4.48,0,0,0,9-.17h0V268h0v-3.9h0v0a7.81,7.81,0,0,1,15.61,0v0h0V268h0v35.55h0a7.81,7.81,0,0,0,15.62,0h0V268h0V249.08h0v0a11.42,11.42,0,0,1,22.83,0v0h0V268h0v68.27h0v0a15.74,15.74,0,0,0,31.47,0v0h0V268h0V232.47h0v0a18.55,18.55,0,1,1,37.1,0v0h0V268h0v30.85h0v.06a29.42,29.42,0,0,0,58.84,0v-.06h0V222.33c0-.23,0-.46,0-.69,0-.42,0-.84,0-1.26s.07-.92.11-1.38c0-.19,0-.37.05-.56.06-.57.13-1.13.22-1.68v0a38.06,38.06,0,0,1,15.72-25.42h.16a38,38,0,0,1,43.45,0h.17a38,38,0,0,1,16.16,31.12v.06h0V378.44a21.16,21.16,0,0,0,42.32-.07v0h0V263.63h0v-16h0v0a18.55,18.55,0,1,1,37.1,0v0h0V268h0v14.34h0v0a6.35,6.35,0,0,0,12.69,0v0h0V268h0V221.64h0v0a10.58,10.58,0,1,1,21.16,0v0h0V268h0v30.91h0a6.49,6.49,0,1,0,13,0h0V268h0V251.81h0v0a6.38,6.38,0,0,1,12.75,0v0h0V268h0v8.2h0a6.15,6.15,0,0,0,12.3,0h0V268h0V239.23h0a7.16,7.16,0,0,1,14.31,0h0V268h0v41.08h0v0a21.17,21.17,0,1,0,42.33,0v0h0V251.31a31.42,31.42,0,0,1,62.82.86v.06h0V333a45.71,45.71,0,0,0,91.41-.83s0-.06,0-.09h0V278.8c0-.06,0-.12,0-.17v0h0v-93h0v0a17.15,17.15,0,1,1,34.3,0v0h0V268h0v64.46h0v0a13.69,13.69,0,0,0,27.38,0v0h0V268h0V214.93h0v0a12.17,12.17,0,1,1,24.33,0v0h0V268h.15V420h0s0,0,0,.07a32.36,32.36,0,0,0,64.71,0V420h0V261.64h0v0a13.41,13.41,0,0,1,26.82,0v0h0v34.83a22.15,22.15,0,0,0,44.27-1.14v0h0V233.47h0v-.07a22.15,22.15,0,0,1,44.29,0v0h0V268h0v58.05h0v0a16.39,16.39,0,1,0,32.77,0v0h0V268h0V228.31h0v-.06a32.76,32.76,0,1,1,65.52,0v.06h0V268h0v6.74h0v0a7.52,7.52,0,0,0,15,0v0h0V258.81a12.26,12.26,0,0,1,24.51.23v0h0v27.73a19.77,19.77,0,0,0,39.53-.38h0v0h0V247.28h0v0a12.11,12.11,0,0,1,24.22,0v0h0V268h0v55h0v0a23.1,23.1,0,0,0,46.2,0v0h0V268h0V210.67h0v0a20.06,20.06,0,0,1,14.67-19.32h10.8a20.06,20.06,0,0,1,14.67,19.32v0h0V268h0v91.18h0v0a17.59,17.59,0,1,0,35.17,0v0h0V263.86h0V246.1h0v0a20.33,20.33,0,1,1,40.65,0v0h0v65h0v0a20.42,20.42,0,1,0,40.83,0v0h0V261.53a32.66,32.66,0,0,1,65.14,3.44v0h0v177.1h0v.06c0,.85,0,1.68-.11,2.51v12h0s0,0,0,.07a36.28,36.28,0,1,0,72.56,0v-.07h0V267.08a19.22,19.22,0,0,1,38.44.24s0,0,0,0h0V268h0v94.29h0v0a19.23,19.23,0,1,0,38.45,0v0h0V268h0V230.49h0v0a13.65,13.65,0,1,1,27.29,0v0h0V268h.05v25.82h0v0a13.65,13.65,0,0,0,27.29,0v0h0V265.17h0v-2.82h0v0a13,13,0,1,1,26.08,0v0h0v67.27a18.93,18.93,0,0,0,37.86-.15v0h0V268h0V245.55h0v0a20,20,0,1,1,40,0v0h0V354h0s0,0,0,0c0,.24,0,.47,0,.71v40.24h0V395a33.19,33.19,0,1,0,66.37,0v-.06h0V19Z" fill="#15839c"/><path d="M0,0V171.07H0v0a9.74,9.74,0,1,0,19.48,0v0h0V118.28h0V81.76h0v0a11.67,11.67,0,0,1,23.33,0v0h0v38.69h0V134h0v.07a37.09,37.09,0,1,0,74.18,0V134h0V107.9a24.18,24.18,0,0,1,48.35.07v0h0v12.44h0v9.79h0v0a9.05,9.05,0,0,0,18.1,0v0h0V100.41a8,8,0,0,1,16.08,0h0v20h0v71.09h0v0a14.41,14.41,0,0,0,28.81,0v0h0V113.48h0V77.05h0v0A11.34,11.34,0,1,1,251,77v0h0v43.4h0V175.6h0v0a15.67,15.67,0,0,0,31.34,0v0h0V110h0v-.1A31.33,31.33,0,0,1,345,110V110h0v10.42h0v43h0v0a13.83,13.83,0,0,0,27.65,0v0h0V88.5h0V80.56h0v0a9,9,0,0,1,18,0v0h0v39.89h0v24.67h0a8.4,8.4,0,0,0,16.8,0h0V99.84h0v0h0a14.26,14.26,0,1,1,28.51,0v0h0v20.61h0v8.89h0v0a18.58,18.58,0,0,0,37.16,0v0h0v-8.89h0V83.09h0v0a16.76,16.76,0,0,1,33.52,0v0h0v37.36h0v24.18h0v.07a33.53,33.53,0,1,0,67.05,0v-.07h0V54.19h0v-.07a27.89,27.89,0,0,1,55.77,0v0h0v66.26h0v48.73h0v0a22.74,22.74,0,1,0,45.47,0v0h0V120.45h0V107.9h0v-.1a60.24,60.24,0,1,1,120.47,0v.1h0v12.55h0v.06a21.21,21.21,0,0,0,42.42,0v0h0V103.31a6.27,6.27,0,0,1,12.53,0h0v17.11h0v22h0a6.83,6.83,0,1,0,13.65,0h0v-37h0v-15h0v0a8,8,0,0,1,15.92,0v0h0v30h0v21.4h0v.05a25.84,25.84,0,1,0,51.68,0s0,0,0-.05h0v-21.4h0V64.67h0v0a16.25,16.25,0,1,1,32.49,0v0h0v88.09h0v39.57h0v0a22,22,0,1,0,44,0v0h0V119.78h0v-.13a48.86,48.86,0,0,1,97.71,0s0,.06,0,.09h0v19h0v0a10.34,10.34,0,0,0,20.68,0v0h0V104.93h0v-.05a17.51,17.51,0,0,1,35,0v0h0v15.52h0v8.1h0a7.34,7.34,0,0,0,14.68,0h0v-8.1h0V75.33h0v0a13.84,13.84,0,1,1,27.67,0v0h0v45.12h.22v50h0v.06a29.58,29.58,0,0,0,59.16,0v-.06h0V97.14a22.33,22.33,0,0,1,44.65.06v0h0v40.58h0v0a12.75,12.75,0,0,0,25.5,0v0h0V106.47a4.36,4.36,0,0,1,8.72.09h0v13.89h0v12.28h0v0a5.75,5.75,0,0,0,11.49,0v0h0V120.45h0V101.16h0a7.15,7.15,0,1,1,14.29,0h0v19.29h0v26.1h0v0a9.73,9.73,0,0,0,19.46,0v0h0v-26.1h0V87.69h0v0a19.5,19.5,0,0,1,39,0s0,0,0,0h0v64.24a37.06,37.06,0,0,0,74.12-.21v-.08h0v-51h0v0h0a30.46,30.46,0,0,1,60.92,0v.06h0v121.8a22,22,0,0,0,43.93,0v0h0V120.27a14.44,14.44,0,0,1,28.87.13v0h0v0h0v53.18h0v0a19.62,19.62,0,1,0,39.23,0v0h0V111.86a22.2,22.2,0,0,1,44.4,0v0h0v8.5h.08v10.62h0a4.21,4.21,0,1,0,8.42,0h0V116.43h0a5.34,5.34,0,0,1,10.67,0h0v4h0V145.7h0a4.85,4.85,0,0,0,9.7,0h0V107.62h0a7.44,7.44,0,0,1,14.87,0h0v40.29h0v0s0,.1,0,.16v40.32h0v.05a22.21,22.21,0,1,0,44.42,0v-.05h0V75.1a13.74,13.74,0,0,1,27.47.57v0h0v74.55h0v19.1h0v0a10.17,10.17,0,0,0,20.34,0v0h0V120.45h0V103.8h0v0a16.51,16.51,0,0,1,33,0v0h0v61.45h0v0a16.51,16.51,0,0,0,33,0v0h0V0Z" fill="#6da492"/></svg>