<svg xmlns="http://www.w3.org/2000/svg" viewBox="0 0 567.68 151.73"><title>Asset 4</title><polygon points="5.72 131.58 535.16 0.53 562.2 8.72 567.16 129.37 35.49 151.23 5.72 131.58" fill="#ffd87e"/><path d="M535.15,1.05l26.56,8,4.93,119.79-531,21.83L7,131.79,535.15,1.05m0-1L4.5,131.36l30.85,20.37,532.33-21.88-5-121.5L535.18,0Z" fill="#b1404e"/><rect x="2.02" y="10.96" width="535.89" height="109.44" transform="translate(-2.47 11.15) rotate(-2.35)" fill="#b33f4c"/><path d="M43.21,112.41c-5.05.2-9.09-.69-12.09-2.67a17.07,17.07,0,0,1-6.6-8.64A42.94,42.94,0,0,1,22.13,88l-1-24.55a41,41,0,0,1,1.43-13.54A16.71,16.71,0,0,1,29,40.78q4.69-3.31,13-3.65,8.13-.35,12.89,2.18a15.31,15.31,0,0,1,6.94,7.22,29.09,29.09,0,0,1,2.45,11.11l.19,4.7L48.68,63l-.24-6A27.63,27.63,0,0,0,48,52.71a6.08,6.08,0,0,0-1.58-3.15,4.84,4.84,0,0,0-3.71-1.07,4.73,4.73,0,0,0-3.73,1.56,6.91,6.91,0,0,0-1.35,3.54,29.48,29.48,0,0,0-.14,4.34l1.4,33.86a19.62,19.62,0,0,0,.68,4.54,6.93,6.93,0,0,0,1.95,3.35,5.07,5.07,0,0,0,3.8,1.16,5.25,5.25,0,0,0,3.82-1.52,7.34,7.34,0,0,0,1.75-3.6,18.8,18.8,0,0,0,.36-4.62l-.36-8.58-6.59.27-.39-9.48L65,72.45l1.56,37.91-10.65.44-1.16-6a13.09,13.09,0,0,1-4,5.27A12.67,12.67,0,0,1,43.21,112.41Z" fill="#ffd87e"/><path d="M76.66,110l-3-73.13,32.86-1.35.46,11-16.71.68L91,65.32l12.73-.53L104.2,76l-12.73.52.9,21.85,16.88-.7.45,10.93Z" fill="#ffd87e"/><path d="M123.6,108,121.09,46.9l-11,.45-.49-12,38.19-1.57.49,12-10.92.45,2.51,61.12Z" fill="#ffd87e"/><path d="M180.39,105.68l-3-73.12,16.16-.67,3,73.13Z" fill="#ffd87e"/><path d="M207.47,104.57l-3-73.13L215.84,31l16.43,34.59-1.45-35.21,13.36-.55,3,73.12-10.92.45-16.55-37.3L221.28,104Z" fill="#ffd87e"/><path d="M287.81,101.27,285.3,40.15l-11,.45-.5-12L312,27l.49,12-10.92.45,2.51,61.12Z" fill="#ffd87e"/><path d="M341.66,100.14c-5.47.22-9.85-.56-13.11-2.36a16.11,16.11,0,0,1-7.21-8,36.29,36.29,0,0,1-2.61-12.83l-1.11-27.17a35.5,35.5,0,0,1,1.54-13,16,16,0,0,1,6.53-8.46q4.67-3,12.88-3.38c5.54-.22,10,.54,13.25,2.31a15.91,15.91,0,0,1,7.25,7.88A35.53,35.53,0,0,1,361.67,48l1.12,27.17a36.15,36.15,0,0,1-1.54,13,16.18,16.18,0,0,1-6.57,8.59Q350,99.8,341.66,100.14Zm-.47-11.47a4.85,4.85,0,0,0,3.65-1.41,6.27,6.27,0,0,0,1.4-3.32,23,23,0,0,0,.2-4.08L345,44.66a23,23,0,0,0-.53-4.1,6.32,6.32,0,0,0-1.67-3.14A4.82,4.82,0,0,0,339,36.31a4.54,4.54,0,0,0-3.47,1.41,6.17,6.17,0,0,0-1.4,3.27,22.13,22.13,0,0,0-.19,4.12l1.44,35.21a25.76,25.76,0,0,0,.49,4.05,6.25,6.25,0,0,0,1.57,3.19A4.7,4.7,0,0,0,341.19,88.67Z" fill="#ffd87e"/><path d="M394.75,98q-8.4.35-13.25-2.21a14.73,14.73,0,0,1-7-7.76A38.6,38.6,0,0,1,372.1,75.1L370,24.64,386,24l2.17,52.9a29.74,29.74,0,0,0,.55,4.5A7.42,7.42,0,0,0,390.46,85a5.65,5.65,0,0,0,7.54-.31,7.42,7.42,0,0,0,1.34-3.77,32.55,32.55,0,0,0,.13-4.52l-2.18-52.9,16.07-.67,2.08,50.47a37.75,37.75,0,0,1-1.41,13,15,15,0,0,1-6.31,8.31Q403.15,97.62,394.75,98Z" fill="#ffd87e"/><path d="M447.65,95.78q-8.31.34-13.26-2.49a16.31,16.31,0,0,1-7.17-8.2,37.73,37.73,0,0,1-2.51-12.78l-1.08-26.37a38,38,0,0,1,1.45-13.12,16.08,16.08,0,0,1,6.46-8.72q4.71-3.18,13-3.52,8.12-.34,12.79,2.14a14.68,14.68,0,0,1,6.76,7.18,29.65,29.65,0,0,1,2.35,10.94l.26,6.32-15.8.65-.3-7.32a35.87,35.87,0,0,0-.4-4.14,6.05,6.05,0,0,0-1.44-3.24A4.59,4.59,0,0,0,445,32a4.8,4.8,0,0,0-3.69,1.51,6.43,6.43,0,0,0-1.39,3.45,27.52,27.52,0,0,0-.14,4.3l1.41,34.4a23.72,23.72,0,0,0,.59,4.45,6.26,6.26,0,0,0,1.76,3.18,4.82,4.82,0,0,0,3.62,1.07,4.47,4.47,0,0,0,3.56-1.45A6.56,6.56,0,0,0,452,79.41a33.29,33.29,0,0,0,.1-4.25l-.32-7.67,15.8-.65.26,6.32a31.5,31.5,0,0,1-1.39,11.22,15.32,15.32,0,0,1-6.09,8Q455.85,95.44,447.65,95.78Z" fill="#ffd87e"/><path d="M477.76,93.46l-3-73.13,16.16-.66,1.22,29.61,11.28-.47L502.19,19.2l16.25-.67,3,73.13-16.25.67-1.31-32-11.29.46,1.32,32Z" fill="#ffd87e"/></svg>