<svg xmlns="http://www.w3.org/2000/svg" viewBox="0 0 744.85 148.15"><title>Asset 3</title><polygon points="0.51 105.15 28.63 125.81 740.9 147.63 744.34 35.3 721.72 23.11 4.99 0.52 0.51 105.15" fill="#b1404e" stroke="#af4150" stroke-miterlimit="10"/><polygon points="717.27 126.47 1.17 104.53 4.34 1.13 721.06 23.73 717.27 126.47" fill="#fed784" stroke="#af4150" stroke-miterlimit="10"/><path d="M20.92,87.66,23,18.51,38.31,19,36.51,77.8l15.88.48-.32,10.33Z" fill="#b1404e"/><path d="M77.39,90.41q-7.76-.24-12.2-3.11a15.23,15.23,0,0,1-6.25-8A34.05,34.05,0,0,1,57.35,67l.79-25.7a33.53,33.53,0,0,1,2.33-12.14,15.15,15.15,0,0,1,6.73-7.53q4.6-2.55,12.37-2.31t12.34,3.07A15,15,0,0,1,98.2,30.3a33.55,33.55,0,0,1,1.59,12.27L99,68.26a34.32,34.32,0,0,1-2.34,12.15,15.27,15.27,0,0,1-6.77,7.65Q85.25,90.66,77.39,90.41Zm.34-10.84a4.53,4.53,0,0,0,3.53-1.09,5.94,5.94,0,0,0,1.55-3,22.14,22.14,0,0,0,.46-3.84l1-33.29a21.37,21.37,0,0,0-.23-3.89,5.92,5.92,0,0,0-1.35-3.07,4.59,4.59,0,0,0-3.47-1.31,4.31,4.31,0,0,0-3.36,1.1,5.93,5.93,0,0,0-1.55,3A22.53,22.53,0,0,0,73.87,38l-1,33.3A24.54,24.54,0,0,0,73,75.16a5.88,5.88,0,0,0,1.28,3.11A4.4,4.4,0,0,0,77.73,79.57Z" fill="#b1404e"/><path d="M127.42,92q-7.77-.24-12.21-3.11A15.29,15.29,0,0,1,109,80.78a34.27,34.27,0,0,1-1.59-12.26l.79-25.7a33.57,33.57,0,0,1,2.33-12.14,15.15,15.15,0,0,1,6.73-7.53q4.61-2.55,12.37-2.31t12.34,3.07a15,15,0,0,1,6.29,7.92,33.55,33.55,0,0,1,1.59,12.27L149,69.79a34.28,34.28,0,0,1-2.34,12.15,15.19,15.19,0,0,1-6.77,7.65Q135.27,92.18,127.42,92Zm.33-10.85A4.56,4.56,0,0,0,131.28,80a6,6,0,0,0,1.55-3,22,22,0,0,0,.46-3.83l1-33.29a22.38,22.38,0,0,0-.22-3.9,6,6,0,0,0-1.36-3.07,4.59,4.59,0,0,0-3.47-1.31,4.31,4.31,0,0,0-3.36,1.1,5.93,5.93,0,0,0-1.55,3,22.53,22.53,0,0,0-.46,3.88l-1,33.29a23.38,23.38,0,0,0,.19,3.85,5.84,5.84,0,0,0,1.27,3.11A4.37,4.37,0,0,0,127.75,81.1Z" fill="#b1404e"/><path d="M157.66,91.85l2.12-69.15,15.28.47-.86,28.26,12.47-27.9,14.94.46L187.85,54.84l12.24,38.31-15.54-.48L175.5,61.8l-1.7,2.69-.86,27.82Z" fill="#b1404e"/><path d="M204.7,93.29l2.12-69.15,15.27.47L220,93.76Z" fill="#b1404e"/><path d="M230.31,94.07l2.11-69.14,10.76.33L256.33,59l1-33.29,12.63.39-2.12,69.14-10.32-.31L244.46,58.62l-1.09,35.85Z" fill="#b1404e"/><path d="M296.17,97.11Q289,96.9,285,93.78a16.16,16.16,0,0,1-5.63-8.59A40.74,40.74,0,0,1,278,72.63l.71-23.22a38.74,38.74,0,0,1,2.27-12.66,15.81,15.81,0,0,1,6.7-8.12q4.67-2.8,12.51-2.57,7.68.24,12,2.94a14.43,14.43,0,0,1,6.06,7.27,27.37,27.37,0,0,1,1.55,10.64l-.13,4.44-14.94-.45.17-5.64a25.59,25.59,0,0,0-.17-4.1,5.65,5.65,0,0,0-1.28-3.08A4.5,4.5,0,0,0,300,36.82,4.41,4.41,0,0,0,296.36,38a6.51,6.51,0,0,0-1.51,3.24,28,28,0,0,0-.43,4.09l-1,32a19.32,19.32,0,0,0,.34,4.32,6.58,6.58,0,0,0,1.61,3.3,4.81,4.81,0,0,0,3.5,1.35,5,5,0,0,0,3.71-1.17,7.08,7.08,0,0,0,1.9-3.27,17.82,17.82,0,0,0,.64-4.34l.25-8.11-6.23-.19.27-9,20,.62-1.1,35.85-10.07-.31-.68-5.75a12.37,12.37,0,0,1-4.16,4.7A11.89,11.89,0,0,1,296.17,97.11Z" fill="#b1404e"/><path d="M349.72,97.73l2.12-69.14,29.88.91-.32,10.33-14.6-.45-.53,17.42,12.72.39-.33,10.67-12.72-.39L365,98.2Z" fill="#b1404e"/><path d="M406.54,100.5q-7.77-.24-12.21-3.11a15.35,15.35,0,0,1-6.25-8,34.15,34.15,0,0,1-1.58-12.27l.78-25.69a33.79,33.79,0,0,1,2.34-12.15,15.06,15.06,0,0,1,6.73-7.53q4.59-2.55,12.37-2.31t12.34,3.07a15.14,15.14,0,0,1,6.29,7.92,33.55,33.55,0,0,1,1.59,12.27l-.79,25.69a33.84,33.84,0,0,1-2.34,12.15A15.15,15.15,0,0,1,419,98.14Q414.39,100.74,406.54,100.5Zm.33-10.84a4.63,4.63,0,0,0,3.54-1.09,6,6,0,0,0,1.54-3,21.1,21.1,0,0,0,.46-3.83l1-33.29a21.45,21.45,0,0,0-.22-3.9,5.89,5.89,0,0,0-1.36-3.07,4.53,4.53,0,0,0-3.46-1.3A4.34,4.34,0,0,0,405,41.24a5.92,5.92,0,0,0-1.54,3A20.72,20.72,0,0,0,403,48.1l-1,33.29a24.54,24.54,0,0,0,.18,3.85,5.8,5.8,0,0,0,1.27,3.11A4.44,4.44,0,0,0,406.87,89.66Z" fill="#b1404e"/><path d="M436.79,100.4l2.12-69.14,19,.58A42.36,42.36,0,0,1,470,33.75a14.66,14.66,0,0,1,7.81,5.75c1.83,2.7,2.66,6.47,2.52,11.31a38.63,38.63,0,0,1-.92,7.58,14.12,14.12,0,0,1-2.69,5.68A14,14,0,0,1,471.36,68l8.45,33.76L464,101.23,457.37,70,453,69.88l-.95,31Zm16.5-39.31,4.27.13a9.37,9.37,0,0,0,5.07-1A6.13,6.13,0,0,0,465.25,57a16.91,16.91,0,0,0,.88-5.23,12.55,12.55,0,0,0-1.41-7c-1-1.69-3-2.57-5.9-2.66L453.87,42Z" fill="#b1404e"/><path d="M506.19,102.52l15.17-68.74,17.42.53,10.77,69.54-14.08-.43-1.86-14.67-10.16-.31L520.61,103Zm18.9-23.17,7.35.22-2.85-27.08Z" fill="#b1404e"/><path d="M573.65,106.38,574,95.71a25,25,0,0,0,3.93-.13,5.61,5.61,0,0,0,2.59-.9,4.21,4.21,0,0,0,1.44-2.1,12.72,12.72,0,0,0,.53-3.61l1.64-53.27,15.27.47-1.65,54a27.17,27.17,0,0,1-1.7,9.39A10.26,10.26,0,0,1,591,105q-3.56,1.77-9.87,1.58Z" fill="#b1404e"/><path d="M627.28,107.26q-7.77-.24-12.21-3.11a15.25,15.25,0,0,1-6.24-8.05,33.92,33.92,0,0,1-1.59-12.27L608,58.14A33.83,33.83,0,0,1,610.36,46a15,15,0,0,1,6.73-7.52q4.6-2.56,12.37-2.32t12.34,3.07a15.08,15.08,0,0,1,6.29,7.93,33.49,33.49,0,0,1,1.59,12.26l-.79,25.7a34.06,34.06,0,0,1-2.33,12.14,15.3,15.3,0,0,1-6.77,7.66C636.68,106.63,632.52,107.42,627.28,107.26Zm.33-10.84a4.58,4.58,0,0,0,3.54-1.09,6,6,0,0,0,1.55-3,21.91,21.91,0,0,0,.45-3.83l1-33.29a20.48,20.48,0,0,0-.22-3.89,5.89,5.89,0,0,0-1.36-3.08,4.56,4.56,0,0,0-3.46-1.3A4.34,4.34,0,0,0,625.76,48a6,6,0,0,0-1.54,3,21.36,21.36,0,0,0-.46,3.87l-1,33.29a24.54,24.54,0,0,0,.18,3.85,6,6,0,0,0,1.27,3.12A4.43,4.43,0,0,0,627.61,96.42Z" fill="#b1404e"/><path d="M657.53,107.16,659.65,38l18,.55a49.27,49.27,0,0,1,8.39.94,19.46,19.46,0,0,1,7,2.82,13,13,0,0,1,4.65,5.61,21.13,21.13,0,0,1,1.47,9.4,17.86,17.86,0,0,1-1.45,7A11.13,11.13,0,0,1,694,68.8a12.72,12.72,0,0,1-5.5,2.14,13.8,13.8,0,0,1,6.67,2.81,13,13,0,0,1,4,5.72A22.8,22.8,0,0,1,700.33,88a27.42,27.42,0,0,1-1.69,9.22,16.13,16.13,0,0,1-4.25,6.24,16.51,16.51,0,0,1-6.65,3.47,30.35,30.35,0,0,1-9,.92ZM673.14,97l3.24.1c3.36.1,5.7-.68,7-2.35s2.05-4.15,2.15-7.45a18.76,18.76,0,0,0-.66-6.26,6.11,6.11,0,0,0-2.72-3.46,11.18,11.18,0,0,0-5.26-1.23l-3.16-.1Zm.94-30.82,3,.09a10.57,10.57,0,0,0,5.32-.9,5.38,5.38,0,0,0,2.53-3,16.46,16.46,0,0,0,.79-4.93,9.53,9.53,0,0,0-.84-4.6,6.37,6.37,0,0,0-2.81-2.86,10.94,10.94,0,0,0-4.8-1.09l-2.65-.08Z" fill="#b1404e"/></svg>