<svg xmlns="http://www.w3.org/2000/svg" viewBox="0 0 508.14 143.66"><title>Asset 1</title><polygon points="5.73 124.64 478.43 0.52 502.59 8.23 507.61 122.21 32.39 143.16 5.73 124.64" fill="#ffd87e"/><path d="M478.41,1l23.7,7.56,5,113.13L32.54,142.65,6.91,124.85,478.41,1m0-1L4.56,124.43l27.69,19.23,475.89-21L503.07,7.86,478.44,0Z" fill="#b1404e"/><rect x="2.05" y="10.49" width="478.9" height="103.44" transform="translate(-2.51 10.7) rotate(-2.52)" fill="#b33f4c"/><path d="M43.06,106.24q-7.94.35-12.53-2.06a13.94,13.94,0,0,1-6.6-7.31A36.51,36.51,0,0,1,21.6,84.7L19.49,37l15.1-.67,2.21,50a26.69,26.69,0,0,0,.53,4.25A7.06,7.06,0,0,0,39,94a4.38,4.38,0,0,0,3.61,1.21,4.36,4.36,0,0,0,3.52-1.52,6.89,6.89,0,0,0,1.25-3.56,29.18,29.18,0,0,0,.11-4.28l-2.2-50,15.19-.67,2.1,47.7a35.7,35.7,0,0,1-1.3,12.32,14.19,14.19,0,0,1-5.93,7.87C52.44,105,48.35,106,43.06,106.24Z" fill="#ffd87e"/><path d="M73.22,103.88l-3-69.1,23.21-1a20.06,20.06,0,0,1,10.34,1.9A14.3,14.3,0,0,1,110,42.21,26.92,26.92,0,0,1,112.43,53q.36,8-2.1,12.36a13.75,13.75,0,0,1-6.91,6.16,30,30,0,0,1-10.08,2.07l-6.14.27,1.29,29.35ZM86.73,63.2,91.84,63a7.44,7.44,0,0,0,4.23-1.21,5,5,0,0,0,1.78-3.16,24.24,24.24,0,0,0,.24-5.22,24.79,24.79,0,0,0-.59-4.64,5.25,5.25,0,0,0-2-3.11,7,7,0,0,0-4.58-1l-5,.22Z" fill="#ffd87e"/><path d="M143.09,100.8l-3-69.1,29.86-1.32.45,10.32-14.59.65.77,17.4,12.71-.56.47,10.66L157,69.42l1.36,30.71Z" fill="#ffd87e"/><path d="M200,99.32q-7.77.34-12.41-2.19a15.29,15.29,0,0,1-6.83-7.56,34.09,34.09,0,0,1-2.5-12.11l-1.13-25.68a33.49,33.49,0,0,1,1.43-12.29,15,15,0,0,1,6.14-8q4.4-2.88,12.17-3.23t12.53,2.14a15.11,15.11,0,0,1,6.87,7.43,33.84,33.84,0,0,1,2.5,12.12l1.13,25.68a34,34,0,0,1-1.43,12.29A15.22,15.22,0,0,1,212.25,96Q207.81,99,200,99.32Zm-.48-10.83a4.59,4.59,0,0,0,3.45-1.35A6,6,0,0,0,204.24,84a21.38,21.38,0,0,0,.17-3.85L203,46.87a21.29,21.29,0,0,0-.51-3.86,6.06,6.06,0,0,0-1.59-3,4.58,4.58,0,0,0-3.55-1A4.32,4.32,0,0,0,194,40.34a5.87,5.87,0,0,0-1.32,3.1,20.62,20.62,0,0,0-.17,3.89L194,80.61a23.88,23.88,0,0,0,.46,3.82,5.92,5.92,0,0,0,1.5,3A4.42,4.42,0,0,0,199.48,88.49Z" fill="#ffd87e"/><path d="M230.12,97l-3.05-69.11,19-.84a42.41,42.41,0,0,1,12.18,1,14.73,14.73,0,0,1,8.22,5.15q3,3.84,3.35,11.1a37.49,37.49,0,0,1-.35,7.62,14.08,14.08,0,0,1-2.26,5.87A13.86,13.86,0,0,1,262.17,62l10.95,33-15.79.7-9-30.64-4.35.19,1.37,31Zm13.52-40.44,4.26-.18a9.4,9.4,0,0,0,5-1.38,6.09,6.09,0,0,0,2.37-3.44,17,17,0,0,0,.49-5.27,12.49,12.49,0,0,0-1.93-6.84q-1.73-2.4-6.08-2.21l-5,.21Z" fill="#ffd87e"/><path d="M303.06,93.75l-3-69.11L315.29,24l1.23,28,10.67-.47L326,23.5l15.36-.68,3.05,69.11L329,92.61,327.67,62.4,317,62.88l1.34,30.2Z" fill="#ffd87e"/><path d="M354.94,91.46l-3.05-69.1,15.27-.68,3,69.11Z" fill="#ffd87e"/><path d="M380.53,90.34l-3-69.11,19-.84a42.41,42.41,0,0,1,12.18,1,14.68,14.68,0,0,1,8.22,5.15q3,3.84,3.35,11.1a38.28,38.28,0,0,1-.34,7.62,14.09,14.09,0,0,1-2.27,5.87,13.9,13.9,0,0,1-5.06,4.28l10.94,33-15.78.7-9-30.64-4.35.19,1.36,31ZM394.05,49.9l4.26-.18a9.34,9.34,0,0,0,5-1.38,6.09,6.09,0,0,0,2.37-3.44,16.67,16.67,0,0,0,.49-5.27,12.58,12.58,0,0,0-1.92-6.84c-1.16-1.61-3.18-2.34-6.08-2.22l-5,.22Z" fill="#ffd87e"/><path d="M431.38,88.09,428.33,19l31.06-1.37L459.85,28l-15.79.69.76,17.15,12-.53.47,10.58-12,.53.91,20.65,15.95-.71.46,10.33Z" fill="#ffd87e"/></svg>